<svg xmlns="http://www.w3.org/2000/svg" xmlns:xlink="http://www.w3.org/1999/xlink" width="67" height="67" viewBox="0 0 67 67">
  <defs>
    <clipPath id="clip-path">
      <rect id="Rectángulo_402989" data-name="Rectángulo 402989" width="48.71" height="41.397" fill="#12263f" stroke="#3a1d71" stroke-width="0.8"/>
    </clipPath>
  </defs>
  <g id="Grupo_1101400" data-name="Grupo 1101400" transform="translate(-1000 -2117)">
    <g id="Grupo_1101381" data-name="Grupo 1101381" transform="translate(0 904)">
      <circle id="Elipse_11639" data-name="Elipse 11639" cx="33.5" cy="33.5" r="33.5" transform="translate(1000 1213)" fill="#debefb"/>
    </g>
    <g id="Grupo_1101391" data-name="Grupo 1101391" transform="translate(1009 2129.999)">
      <g id="Grupo_1101390" data-name="Grupo 1101390" transform="translate(0 0.001)" clip-path="url(#clip-path)">
        <path id="Trazado_878462" data-name="Trazado 878462" d="M16.615,10.352l-2.282,2.57-.516-.36a.478.478,0,0,0-.552.781c1.573,1.117.853,1.261,4.059-2.354a.481.481,0,0,0-.721-.636Z" transform="translate(2.623 2.045)" fill="#12263f" stroke="#3a1d71" stroke-width="0.8"/>
        <path id="Trazado_878463" data-name="Trazado 878463" d="M18.84,11.748c9.571,0,9.715.2,9.715-.48s-.1-.48-9.715-.48a.48.48,0,0,0,0,.961" transform="translate(3.689 2.161)" fill="#12263f" stroke="#3a1d71" stroke-width="0.8"/>
        <path id="Trazado_878464" data-name="Trazado 878464" d="M18.84,14.418c9.571,0,9.715.2,9.715-.48s-.1-.48-9.715-.48a.48.48,0,0,0,0,.961" transform="translate(3.689 2.697)" fill="#12263f" stroke="#3a1d71" stroke-width="0.8"/>
        <path id="Trazado_878465" data-name="Trazado 878465" d="M16.615,17.072l-2.282,2.57-.516-.36a.478.478,0,0,0-.552.781c1.573,1.117.853,1.261,4.059-2.354a.481.481,0,0,0-.721-.636Z" transform="translate(2.623 3.395)" fill="#12263f" stroke="#3a1d71" stroke-width="0.8"/>
        <path id="Trazado_878466" data-name="Trazado 878466" d="M28.075,17.5c-9.571,0-9.715-.2-9.715.48s.1.48,9.715.48a.48.48,0,0,0,0-.961" transform="translate(3.689 3.509)" fill="#12263f" stroke="#3a1d71" stroke-width="0.8"/>
        <path id="Trazado_878467" data-name="Trazado 878467" d="M5.524,6.885A1.945,1.945,0,0,0,3.6,4.916C2.126,4.9,1.441,4.784.757,5.456-.06,6.249.18,5.444,0,25.355c0,.156-.024.06,2.2,4.623a.5.5,0,0,0,.432.276c.408,0,.3,0,2.666-4.647.084-.144.048-.132.228-18.734ZM2.642,28.705,1.249,25.847l2.846.024ZM1.129,6.837a.973.973,0,0,1,1-.973c1.525.012,1.8-.06,2.15.3s.288.624.276,1.693L1.117,7.822V6.837Zm0,1.945,3.435.036L4.419,24.911.985,24.875,1.141,8.783Z" transform="translate(0 0.984)" fill="#12263f" stroke="#3a1d71" stroke-width="0.8"/>
        <path id="Trazado_878468" data-name="Trazado 878468" d="M44.9,38.108c.648-.168.66-.4,2.282-3.23a1.242,1.242,0,0,0-.456-1.705c-.516-.3-.685-.348-.648-.576a8.6,8.6,0,0,0,0-3.23c-.048-.216.156-.288.648-.564a1.263,1.263,0,0,0,.456-1.705l-1.525-2.654a1.239,1.239,0,0,0-1.705-.456l-.5.288a.3.3,0,0,1-.348-.048,8.775,8.775,0,0,0-2.714-1.573c-.252-.1-.216-.24-.216-.865a1.245,1.245,0,0,0-1.237-1.249H36.194V6.224a1.819,1.819,0,0,0-1.813-1.813H28.724c-.552-1.345-2.054-1.069-3.266-1.069a3.832,3.832,0,0,0-7.6,0H16.271a1.829,1.829,0,0,0-1.705,1.069H8.573A1.819,1.819,0,0,0,6.76,6.224v31.8a1.819,1.819,0,0,0,1.813,1.813h25.8c.324,0,.252-.156.252.312A1.245,1.245,0,0,0,35.858,41.4h3.05a1.245,1.245,0,0,0,1.237-1.249v-.588a.3.3,0,0,1,.216-.276,8.774,8.774,0,0,0,2.714-1.573c.4-.336.841.624,1.789.372Zm-5.68,2.066c0,.4-.18.288-3.339.288a.282.282,0,0,1-.276-.288c0-2.306-1.009-1.249-3.266-3.17a1.284,1.284,0,0,0-1.441-.144c-.721.42-.7.516-1.093-.156-1.369-2.378-1.561-2.51-1.225-2.7,2.114-1.213.5-1.309,1.1-4.455a1.226,1.226,0,0,0-.6-1.285c-1-.576-.865-.24.913-3.339a.293.293,0,0,1,.384-.108l.5.3c1,.564,1.669-.432,2.642-.985,1.537-.877,2.066-.468,2.066-2.33,0-.4.312-.288,3.339-.288a.282.282,0,0,1,.276.288c0,2.342.925,1.165,3.266,3.17a1.272,1.272,0,0,0,1.453.144c1.009-.588.636-.624,2.414,2.462.168.3-.132.408-.612.685-.985.576-.456,1.381-.456,2.726s-.528,2.138.468,2.726c1.057.6.865.24-.913,3.326-.36.612-1.177-1.021-2.342-.048-2.438,2.078-3.266.8-3.266,3.17ZM8.585,38.9a.856.856,0,0,1-.853-.853V6.248A.856.856,0,0,1,8.585,5.4H14.47V7.113H11.263A1.819,1.819,0,0,0,9.45,8.926c0,21.88-.1,21.652.144,21.892.216.18,6.185,6.257,6.389,6.341.144.06,0,.036,13.006.036a1.558,1.558,0,0,0,.961.925c.6.156.973-.144,1.441-.42.336-.192.348.312,2.174,1.213H8.609ZM18.793,3.846a2.876,2.876,0,1,1,5.752,0c.024,1.153,3.254-.264,3.363,1.1.012.144,0,.1,0,2.954a.788.788,0,0,1-.853.7H16.283a.788.788,0,0,1-.853-.7V4.951c.12-1.393,3.339.06,3.363-1.1M34.381,5.4a.856.856,0,0,1,.853.853V20.767c-.673.42-.6.973-.6,1.621,0,.252-.156.228-1.1.7V8.914A1.819,1.819,0,0,0,31.715,7.1H28.869V5.384h5.512Zm-5.02,18.83c-8.49,0-8.683-.2-8.683.48s.264.48,8.058.48l-1.1,1.921a1.242,1.242,0,0,0,.456,1.705c.516.3.685.36.648.564a8.6,8.6,0,0,0,0,3.23c.036.216-.144.276-.648.576a1.241,1.241,0,0,0-.456,1.693l.781,1.345H16.631V31.8a1.819,1.819,0,0,0-1.813-1.813H10.411V8.926a.856.856,0,0,1,.853-.853h3.23a1.76,1.76,0,0,0,1.8,1.489H27.067a1.769,1.769,0,0,0,1.8-1.489h2.858a.856.856,0,0,1,.853.853V23.637c-.925.612-.973.781-1.2.66-.3-.168-1.2-.889-2.006-.06ZM14.806,30.951a.856.856,0,0,1,.853.853V35.55l-4.587-4.6h3.735" transform="translate(1.358 -0.001)" fill="#12263f" stroke="#3a1d71" stroke-width="0.8"/>
        <path id="Trazado_878469" data-name="Trazado 878469" d="M38.1,26.658a4.977,4.977,0,1,1,0-.012Zm-4.984,4.035a4.029,4.029,0,1,1,0,.012Z" transform="translate(5.656 4.352)" fill="#12263f" stroke="#3a1d71" stroke-width="0.8"/>
      </g>
    </g>
  </g>
</svg>
