<svg xmlns="http://www.w3.org/2000/svg" xmlns:xlink="http://www.w3.org/1999/xlink" width="82" height="82" viewBox="0 0 82 82">
  <defs>
    <clipPath id="clip-path">
      <rect id="Rectángulo_403023" data-name="Rectángulo 403023" width="55.698" height="48.448" fill="none" stroke="#fff" stroke-width="2"/>
    </clipPath>
  </defs>
  <g id="Grupo_1101443" data-name="Grupo 1101443" transform="translate(-308 -5474)">
    <g id="Grupo_1101437" data-name="Grupo 1101437" transform="translate(0 555)">
      <circle id="Elipse_11650" data-name="Elipse 11650" cx="41" cy="41" r="41" transform="translate(308 4919)" fill="#8722e2"/>
    </g>
    <g id="Grupo_1101442" data-name="Grupo 1101442" transform="translate(321 5491)">
      <g id="Grupo_1101441" data-name="Grupo 1101441" clip-path="url(#clip-path)">
        <rect id="Rectángulo_403019" data-name="Rectángulo 403019" width="10.039" height="10.039" rx="5.02" transform="translate(6.336 0.764)" fill="none" stroke="#fff" stroke-linecap="round" stroke-linejoin="round" stroke-width="2"/>
        <rect id="Rectángulo_403020" data-name="Rectángulo 403020" width="10.039" height="10.039" rx="5.02" transform="translate(44.895 26.49)" fill="none" stroke="#fff" stroke-linecap="round" stroke-linejoin="round" stroke-width="2"/>
        <rect id="Rectángulo_403021" data-name="Rectángulo 403021" width="10.039" height="10.039" rx="5.02" transform="translate(4.672 18.495)" fill="none" stroke="#fff" stroke-linecap="round" stroke-linejoin="round" stroke-width="2"/>
        <rect id="Rectángulo_403022" data-name="Rectángulo 403022" width="10.039" height="10.039" rx="5.02" transform="translate(7.708 37.644)" fill="none" stroke="#fff" stroke-linecap="round" stroke-linejoin="round" stroke-width="2"/>
        <path id="Trazado_878482" data-name="Trazado 878482" d="M89.975,26.494h16.72a4.183,4.183,0,0,1,4.183,4.183v1.371a4.165,4.165,0,0,1-.468,1.925" transform="translate(-70.333 -20.71)" fill="none" stroke="#fff" stroke-linecap="round" stroke-linejoin="round" stroke-width="2"/>
        <path id="Trazado_878483" data-name="Trazado 878483" d="M58.345,144.091a3.7,3.7,0,0,0,.624.053H65.25" transform="translate(-45.608 -112.635)" fill="none" stroke="#fff" stroke-linecap="round" stroke-linejoin="round" stroke-width="2"/>
        <line id="Línea_560" data-name="Línea 560" x1="2.926" transform="translate(13.361 15.521)" fill="none" stroke="#fff" stroke-linecap="round" stroke-linejoin="round" stroke-width="2"/>
        <path id="Trazado_878484" data-name="Trazado 878484" d="M125.206,184.586a4.311,4.311,0,0,1-3.849,2.367H96.91" transform="translate(-75.754 -144.289)" fill="none" stroke="#fff" stroke-linecap="round" stroke-linejoin="round" stroke-width="2"/>
        <line id="Línea_561" data-name="Línea 561" x1="2.138" transform="translate(2.623 42.664)" fill="none" stroke="#fff" stroke-linecap="round" stroke-linejoin="round" stroke-width="2"/>
        <line id="Línea_562" data-name="Línea 562" x1="2.421" transform="translate(0.764 5.784)" fill="none" stroke="#fff" stroke-linecap="round" stroke-linejoin="round" stroke-width="2"/>
        <circle id="Elipse_11653" data-name="Elipse 11653" cx="4.353" cy="4.353" r="4.353" transform="translate(26.9 19.378)" fill="none" stroke="#fff" stroke-linecap="round" stroke-linejoin="round" stroke-width="2"/>
        <path id="Trazado_878485" data-name="Trazado 878485" d="M116.142,72.68V69.753l-1.863-.276a8.73,8.73,0,0,0-1.292-3.115l1.123-1.514-2.069-2.069L110.528,63.9a8.728,8.728,0,0,0-3.115-1.292l-.276-1.863H104.21l-.276,1.863a8.726,8.726,0,0,0-3.115,1.292L99.306,62.78l-2.069,2.069,1.123,1.514a8.726,8.726,0,0,0-1.292,3.115l-1.863.276V72.68l1.863.276a8.728,8.728,0,0,0,1.292,3.115l-1.123,1.514,2.069,2.069,1.514-1.123a8.726,8.726,0,0,0,3.115,1.292l.276,1.863h2.926l.276-1.863a8.724,8.724,0,0,0,3.115-1.292l1.514,1.123,2.069-2.069-1.123-1.514a8.731,8.731,0,0,0,1.292-3.115Z" transform="translate(-74.421 -47.486)" fill="none" stroke="#fff" stroke-linecap="round" stroke-linejoin="round" stroke-width="2"/>
      </g>
    </g>
  </g>
</svg>
