<svg xmlns="http://www.w3.org/2000/svg" xmlns:xlink="http://www.w3.org/1999/xlink" width="67" height="67" viewBox="0 0 67 67">
  <defs>
    <clipPath id="clip-path">
      <rect id="Rectángulo_402988" data-name="Rectángulo 402988" width="42.354" height="42.821" fill="#12263f" stroke="#3a1d71" stroke-width="1"/>
    </clipPath>
  </defs>
  <g id="Grupo_1101399" data-name="Grupo 1101399" transform="translate(-685 -2117)">
    <g id="Grupo_1101382" data-name="Grupo 1101382" transform="translate(0 904)">
      <circle id="Elipse_11638" data-name="Elipse 11638" cx="33.5" cy="33.5" r="33.5" transform="translate(685 1213)" fill="#debefb"/>
    </g>
    <g id="Grupo_1101389" data-name="Grupo 1101389" transform="translate(697 2129.001)">
      <g id="Grupo_1101388" data-name="Grupo 1101388" transform="translate(0 0)" clip-path="url(#clip-path)">
        <path id="Trazado_878461" data-name="Trazado 878461" d="M40.578.574A2.046,2.046,0,0,0,37.69.621c-2.57,2.653-2.334,2.417-2.57,2.653a2.289,2.289,0,0,0-2.04-1.285H7.722A2.289,2.289,0,0,0,5.435,4.276V5.62H3.195A3.2,3.2,0,0,0,0,8.815V32.358a3.187,3.187,0,0,0,3.195,3.183H14.5a8.766,8.766,0,0,1-2.452,6.3H5.918a.472.472,0,0,0,0,.943c29.461,0,29.449.248,29.449-.472,0-.66-.165-.472-6.6-.472a8.767,8.767,0,0,1-2.452-6.3H37.619a3.2,3.2,0,0,0,3.195-3.183c0-25.04.4-24.474-.943-25.807l1.91-1.981a2.046,2.046,0,0,0-.047-2.888L40.6.586Zm-.731,31.784A2.242,2.242,0,0,1,37.6,34.6H3.183a2.249,2.249,0,0,1-2.252-2.24v-2.24h38.9v2.24Zm-26.561,9.49a9.71,9.71,0,0,0,2.134-6.083c0-.318-1.12-.212,9.927-.212a9.669,9.669,0,0,0,2.134,6.3H13.286ZM.931,8.815a2.242,2.242,0,0,1,2.252-2.24h2.24v22.6H.931ZM7.71,2.944H33.069a1.327,1.327,0,0,1,1.3,1.108c-10.61,10.988-10.54,10.87-10.587,11.023l-1.592,5.046a.47.47,0,0,0,.448.613c.165,0,.707-.236,5.14-1.792.141-.059-.307.377,6.626-6.791V29.163H6.366V4.276A1.343,1.343,0,0,1,7.71,2.932ZM39.848,29.175H35.356V11.2l3.832-3.961c.92.92.66-.012.66,21.94M24.451,16.1l2.287,2.228-3.36,1.179Zm3.16,1.745L24.9,15.216,36.947,2.755l2.712,2.629c-2.936,3.042-.024.035-12.049,12.461M41.085,3.91l-.766.79L37.608,2.071c.755-.778.967-1.12,1.544-1.132.519-.012.613.141,1.91,1.4A1.1,1.1,0,0,1,41.085,3.9Z" transform="translate(0 0.001)" fill="#12263f" stroke="#3a1d71" stroke-width="1"/>
      </g>
    </g>
  </g>
</svg>
