<svg xmlns="http://www.w3.org/2000/svg" xmlns:xlink="http://www.w3.org/1999/xlink" width="67" height="67" viewBox="0 0 67 67">
  <defs>
    <clipPath id="clip-path">
      <rect id="Rectángulo_402990" data-name="Rectángulo 402990" width="38.536" height="43.273" fill="#3a1d71" stroke="#3a1d71" stroke-width="1"/>
    </clipPath>
  </defs>
  <g id="Grupo_1101397" data-name="Grupo 1101397" transform="translate(9016 9583)">
    <g id="Grupo_1101385" data-name="Grupo 1101385" transform="translate(-9386 -10796)">
      <circle id="Elipse_11640" data-name="Elipse 11640" cx="33.5" cy="33.5" r="33.5" transform="translate(370 1213)" fill="#debefb"/>
    </g>
    <g id="Grupo_1101393" data-name="Grupo 1101393" transform="translate(-9002 -9571)">
      <g id="Grupo_1101392" data-name="Grupo 1101392" transform="translate(0 0)" clip-path="url(#clip-path)">
        <path id="Trazado_878470" data-name="Trazado 878470" d="M10.729,15.526c11.825,0,11.725.212,11.725-.5s.038-.5-11.725-.5a.5.5,0,0,0,0,1" transform="translate(2.558 3.623)" fill="#3a1d71" stroke="#3a1d71" stroke-width="1"/>
        <path id="Trazado_878471" data-name="Trazado 878471" d="M9.14,14.472a.5.5,0,0,0-.7-.712L6.528,15.61l-.662-1a.5.5,0,0,0-.837.562c1.612,2.412.925,2.375,4.1-.7Z" transform="translate(1.234 3.402)" fill="#3a1d71" stroke="#3a1d71" stroke-width="1"/>
        <path id="Trazado_878472" data-name="Trazado 878472" d="M9.152,18.454c-.45-.475-.75.025-2.625,1.837-.637-.95-.862-1.462-1.362-1.137-.525.35-.087.775.862,2.187a.535.535,0,0,0,.412.225c.287,0,.187.013,2.687-2.412a.5.5,0,0,0,0-.712Z" transform="translate(1.235 4.57)" fill="#3a1d71" stroke="#3a1d71" stroke-width="1"/>
        <path id="Trazado_878473" data-name="Trazado 878473" d="M34.761,35.324a2.135,2.135,0,0,0-2.537-.3L31.2,34.011v-1.55a7.455,7.455,0,0,0,0-8.112V8.2a2.411,2.411,0,0,0-2.387-2.425H23.649V5.312a2.411,2.411,0,0,0-2.387-2.425H19.874V2.425A2.411,2.411,0,0,0,17.487,0H13.712a2.411,2.411,0,0,0-2.387,2.425v.462H9.937A2.411,2.411,0,0,0,7.55,5.312v.462H2.387A2.411,2.411,0,0,0,0,8.2V40.848a2.411,2.411,0,0,0,2.387,2.425H28.824a2.411,2.411,0,0,0,2.387-2.425c0-6.487-.112-5.525.312-5.1a2.073,2.073,0,0,0,.312,2.55c3.275,3.275,3.475,3.737,4.612,3.737a2.086,2.086,0,0,0,1.475-3.562l-3.137-3.137ZM30.2,40.836a1.409,1.409,0,0,1-1.387,1.425H2.375A1.409,1.409,0,0,1,.987,40.836V8.187A1.409,1.409,0,0,1,2.375,6.762H7.537C7.537,9,7.3,8.687,9.425,8.687v.925c-6.362,0-6.6-.187-6.6.5,0,25.324-.075,25.087.125,25.324l4.35,4.75c.237.237,0,.15,20.562.15.712,0,.5-.562.5-5.325,1.837-.962,1.137-1.287,1.837-.587ZM9.925,3.887c2.662,0,2.387.225,2.387-1.462A1.409,1.409,0,0,1,13.7,1h3.775a1.409,1.409,0,0,1,1.387,1.425c0,1.75-.187,1.462,2.387,1.462a1.409,1.409,0,0,1,1.387,1.425V7.687H8.525V5.312A1.409,1.409,0,0,1,9.912,3.887Zm18.437,30a6.51,6.51,0,1,1-.037-11,6.522,6.522,0,0,1,.037,11M7.15,35.6v2.937L4.45,35.6Zm.5-1H3.825v-24h5.6v.9a1.03,1.03,0,0,0,1.025,1.025H20.737A1.03,1.03,0,0,0,21.762,11.5v-.9h5.6V21.337a7.48,7.48,0,0,0-8.637,2.75c-5.675,0-5.95-.175-5.95.5,0,.712.537.5,5.35.5a7.489,7.489,0,0,0,9.237,10.362v3.875H8.15C8.15,34.986,8.325,34.6,7.65,34.6Zm13.1-25.924-.025,2.837-10.312-.025V8.675H20.749ZM30.2,23.087a7.446,7.446,0,0,0-1.837-1.312V10.1c0-.712-.325-.5-6.6-.5V8.675c2.125,0,1.887.3,1.887-1.925h5.162A1.409,1.409,0,0,1,30.2,8.175Zm5.462,17.6-3.137-3.137a1.083,1.083,0,0,1,1.525-1.537c3.425,3.412,3.462,3.3,3.462,3.9A1.088,1.088,0,0,1,35.661,40.686Z" transform="translate(0 0)" fill="#3a1d71" stroke="#3a1d71" stroke-width="1"/>
      </g>
    </g>
  </g>
</svg>
