<svg xmlns="http://www.w3.org/2000/svg" xmlns:xlink="http://www.w3.org/1999/xlink" width="67" height="67" viewBox="0 0 67 67">
  <defs>
    <clipPath id="clip-path">
      <rect id="Rectángulo_402991" data-name="Rectángulo 402991" width="40.457" height="42.826" fill="#3a1d71" stroke="#3a1d71" stroke-width="1"/>
    </clipPath>
  </defs>
  <g id="Grupo_1101396" data-name="Grupo 1101396" transform="translate(8701 9583)">
    <g id="Grupo_1101384" data-name="Grupo 1101384" transform="translate(-9386 -10796)">
      <circle id="Elipse_11638" data-name="Elipse 11638" cx="33.5" cy="33.5" r="33.5" transform="translate(685 1213)" fill="#debefb"/>
    </g>
    <g id="Grupo_1101395" data-name="Grupo 1101395" transform="translate(-8687.666 -9570.704)">
      <g id="Grupo_1101394" data-name="Grupo 1101394" transform="translate(0 0)" clip-path="url(#clip-path)">
        <path id="Trazado_878474" data-name="Trazado 878474" d="M14.721,11.806a.5.5,0,0,0-.732-.434,8.238,8.238,0,0,0-1.675,13.34,4.454,4.454,0,0,1,1.439,3.214V39.577c0,.695.223.5,7.781.5a.5.5,0,0,0,.5-.5c0-12.384-.459-13.154,1.415-14.866a8.234,8.234,0,0,0-1.712-13.328.5.5,0,0,0-.732.434v7.607H14.721V11.806Zm6.291,16.12V39.081H14.746V27.925c-.037-4.157-4.132-4.207-4.12-9.282a7.232,7.232,0,0,1,3.09-5.944v7.222c0,.695.211.5,7.781.509.707,0,.5-.509.5-7.719a7.245,7.245,0,0,1,.769,11.28,5.351,5.351,0,0,0-1.75,3.946Z" transform="translate(2.322 2.725)" fill="#3a1d71" stroke="#3a1d71" stroke-width="1"/>
        <path id="Trazado_878475" data-name="Trazado 878475" d="M39.417,16.194a2.079,2.079,0,0,0,.757-2.842c-3.45-5.969-3.35-6.192-4.455-6.49-.968-.261-1.477.149-2.643.819-1.353.769-1.7-1.5-6.8-3.326-.931-.335-.769-1.08-.769-2.258a2.1,2.1,0,0,0-2.1-2.1H17.043a2.092,2.092,0,0,0-2.085,2.1V3.313c0,1.539-2.134.707-6.291,4.232a1.115,1.115,0,0,1-1.291.149L6.321,7.086a2.094,2.094,0,0,0-2.854.769L.29,13.365a2.073,2.073,0,0,0,.757,2.842c.757.447,1.775.794,1.588,1.725a16.986,16.986,0,0,0,0,6.527c.161.831-.521,1.092-1.588,1.725a2.091,2.091,0,0,0-.769,2.854l3.177,5.51a2.087,2.087,0,0,0,2.854.757c1.005-.583,1.6-1.092,2.345-.459a17.844,17.844,0,0,0,4.827,2.916.47.47,0,0,0,.459-.05c.31-.211.223.037.211-6.453a.5.5,0,0,0-.223-.41C4.385,24.608,8.865,9.778,20.22,9.766c11.565,0,15.834,15.2,6.006,21.245a.484.484,0,0,0-.236.422c0,6.391-.087,6.167.211,6.378a.47.47,0,0,0,.459.05c4.778-1.837,5.088-3.934,6.416-3.177,1.2.683,1.688,1.08,2.643.807,1.1-.3,1.03-.571,4.455-6.478a2.1,2.1,0,0,0-.757-2.854c-2.544-1.464-1.278-.608-1.278-4.976,0-4.418-1.278-3.512,1.291-4.989Zm-.1,12.322c-3.934,6.8-3.288,6.7-5.745,5.311-2-1.154-2.345.993-6.589,2.829V31.693C37.394,24.98,32.616,8.761,20.22,8.761S3.045,24.6,13.159,31.519v5.013c-3.9-1.775-4.368-3.81-6.3-2.705L5.8,34.436a1.1,1.1,0,0,1-1.5-.4c-3.921-6.8-4.17-6.2-1.725-7.619A2.068,2.068,0,0,0,3.591,24.26c-1.042-5.361,1.179-7.048-1.018-8.3C.154,14.556.352,15.189,4.3,8.339a1.1,1.1,0,0,1,1.5-.4l1.055.608C9.014,9.791,9.361,7.123,14.5,5.286a2.127,2.127,0,0,0,1.427-1.973V2.1a1.1,1.1,0,0,1,1.092-1.1h6.366a1.1,1.1,0,0,1,1.1,1.092V3.3c0,2.469,2.494,1.464,6.639,4.989C33.336,10.126,35,6.4,36.116,8.327l3.189,5.51a1.092,1.092,0,0,1-.4,1.489l-1.055.608a2.068,2.068,0,0,0-1.018,2.159c1.018,5.522-1.179,7.048,1.005,8.314l1.055.608a1.1,1.1,0,0,1,.4,1.5Z" transform="translate(0 0)" fill="#3a1d71" stroke="#3a1d71" stroke-width="1"/>
      </g>
    </g>
  </g>
</svg>
