<svg id="Grupo_1100586" data-name="Grupo 1100586" xmlns="http://www.w3.org/2000/svg" xmlns:xlink="http://www.w3.org/1999/xlink" width="87.639" height="85.176" viewBox="0 0 87.639 85.176">
  <defs>
    <clipPath id="clip-path">
      <rect id="Rectángulo_401164" data-name="Rectángulo 401164" width="87.639" height="85.176" fill="none"/>
    </clipPath>
    <clipPath id="clip-path-4">
      <rect id="Rectángulo_401148" data-name="Rectángulo 401148" width="14.05" height="19.793" fill="none"/>
    </clipPath>
    <clipPath id="clip-path-5">
      <rect id="Rectángulo_401149" data-name="Rectángulo 401149" width="22.294" height="19.719" fill="none"/>
    </clipPath>
    <clipPath id="clip-path-6">
      <rect id="Rectángulo_401150" data-name="Rectángulo 401150" width="12.399" height="22.319" fill="none"/>
    </clipPath>
    <clipPath id="clip-path-7">
      <rect id="Rectángulo_401151" data-name="Rectángulo 401151" width="13.331" height="5.692" fill="none"/>
    </clipPath>
    <clipPath id="clip-path-8">
      <rect id="Rectángulo_401152" data-name="Rectángulo 401152" width="4.465" height="7.349" fill="none"/>
    </clipPath>
    <clipPath id="clip-path-9">
      <rect id="Rectángulo_401153" data-name="Rectángulo 401153" width="4.771" height="2.983" fill="none"/>
    </clipPath>
    <clipPath id="clip-path-10">
      <rect id="Rectángulo_401154" data-name="Rectángulo 401154" width="10.921" height="7.073" fill="none"/>
    </clipPath>
    <clipPath id="clip-path-11">
      <rect id="Rectángulo_401155" data-name="Rectángulo 401155" width="25.619" height="35.835" fill="none"/>
    </clipPath>
    <clipPath id="clip-path-12">
      <rect id="Rectángulo_401156" data-name="Rectángulo 401156" width="18.89" height="40.509" fill="none"/>
    </clipPath>
    <clipPath id="clip-path-13">
      <rect id="Rectángulo_401157" data-name="Rectángulo 401157" width="5.275" height="9.784" fill="none"/>
    </clipPath>
    <clipPath id="clip-path-14">
      <rect id="Rectángulo_401158" data-name="Rectángulo 401158" width="2.14" height="3.6" fill="none"/>
    </clipPath>
    <clipPath id="clip-path-15">
      <rect id="Rectángulo_401159" data-name="Rectángulo 401159" width="10.813" height="6.554" fill="none"/>
    </clipPath>
    <clipPath id="clip-path-16">
      <rect id="Rectángulo_401160" data-name="Rectángulo 401160" width="1.923" height="2.971" fill="none"/>
    </clipPath>
    <clipPath id="clip-path-17">
      <rect id="Rectángulo_401161" data-name="Rectángulo 401161" width="18.797" height="12.084" fill="none"/>
    </clipPath>
    <clipPath id="clip-path-18">
      <rect id="Rectángulo_401162" data-name="Rectángulo 401162" width="16.901" height="38.942" fill="none"/>
    </clipPath>
  </defs>
  <g id="Grupo_1100535" data-name="Grupo 1100535" clip-path="url(#clip-path)">
    <g id="Grupo_1100487" data-name="Grupo 1100487">
      <g id="Grupo_1100486" data-name="Grupo 1100486" clip-path="url(#clip-path)">
        <path id="Trazado_873874" data-name="Trazado 873874" d="M167.617,232.1l-22.162-.207-6.716-.032-1.826,0-.475.006a1.062,1.062,0,0,0-.162.009,1.009,1.009,0,0,0,.162.01l.475.011,1.826.022,6.716.035,22.163.014c8.65,0,16.483.01,22.154.051,2.835.02,5.13.046,6.716.076.793.015,1.408.03,1.826.046a3.437,3.437,0,0,1,.636.047,3.474,3.474,0,0,1-.637.04c-.417.012-1.033.021-1.826.028-1.586.014-3.881.017-6.716.009-5.671-.016-13.5-.083-22.153-.17" transform="translate(-111.31 -189.383)" fill="#f5f5f5"/>
        <path id="Trazado_873875" data-name="Trazado 873875" d="M168.53,221.446l-21.859-3.554-6.63-1.045-1.8-.271-.47-.065a.081.081,0,1,0,0,.019l.467.083,1.8.3,6.629,1.05,21.892,3.359c8.545,1.3,16.281,2.5,21.877,3.394,2.8.448,5.06.82,6.622,1.09.781.134,1.386.243,1.8.322a3.388,3.388,0,0,1,.621.143,3.374,3.374,0,0,1-.636-.055c-.414-.051-1.024-.135-1.809-.248-1.569-.226-3.837-.569-6.636-1.005-5.6-.872-13.326-2.122-21.856-3.515" transform="translate(-112.396 -176.833)" fill="#f5f5f5"/>
        <path id="Trazado_873876" data-name="Trazado 873876" d="M171.228,210.707l-21.01-6.856-6.378-2.047-1.738-.544-.454-.136a1,1,0,0,0-.157-.04.963.963,0,0,0,.15.059l.448.154,1.729.571,6.376,2.051,21.075,6.667c8.227,2.6,15.674,4.958,21.054,6.7,2.69.871,4.864,1.585,6.362,2.09.749.252,1.33.453,1.722.593a3.311,3.311,0,0,1,.59.237,3.346,3.346,0,0,1-.619-.152c-.4-.114-.99-.29-1.746-.521-1.513-.463-3.7-1.148-6.39-2.008-5.388-1.718-12.816-4.136-21.014-6.818" transform="translate(-115.57 -164.246)" fill="#f5f5f5"/>
        <path id="Trazado_873877" data-name="Trazado 873877" d="M175.624,200.524l-19.639-9.982-5.967-3-1.628-.8-.426-.2a1.017,1.017,0,0,0-.148-.064.989.989,0,0,0,.139.081l.418.22,1.615.827,5.964,3,19.732,9.808c7.7,3.822,14.675,7.294,19.706,9.837,2.516,1.271,4.547,2.309,5.945,3.036.7.364,1.24.65,1.6.849a3.334,3.334,0,0,1,.545.323,3.389,3.389,0,0,1-.586-.245c-.377-.174-.93-.438-1.64-.782-1.419-.688-3.464-1.7-5.985-2.961-5.043-2.521-11.987-6.044-19.649-9.945" transform="translate(-120.735 -152.313)" fill="#f5f5f5"/>
        <path id="Trazado_873878" data-name="Trazado 873878" d="M181.534,191.258l-17.793-12.843-5.411-3.866-1.479-1.041-.388-.266a.959.959,0,0,0-.136-.085.984.984,0,0,0,.124.1l.377.281,1.462,1.063,5.409,3.87,17.912,12.685c6.995,4.946,13.322,9.434,17.882,12.71,2.28,1.637,4.12,2.971,5.384,3.9.632.466,1.12.83,1.448,1.082a3.289,3.289,0,0,1,.486.4,3.347,3.347,0,0,1-.54-.331c-.345-.229-.848-.574-1.494-1.022-1.291-.9-3.148-2.205-5.436-3.833-4.575-3.256-10.868-7.79-17.808-12.808" transform="translate(-127.688 -141.434)" fill="#f5f5f5"/>
        <path id="Trazado_873879" data-name="Trazado 873879" d="M188.787,183.079,173.266,167.7l-4.727-4.637-1.295-1.252-.341-.322a1.024,1.024,0,0,0-.121-.1.939.939,0,0,0,.107.119l.328.334,1.275,1.271,4.723,4.64L188.88,182.99c6.118,5.943,11.65,11.333,15.63,15.258,1.991,1.962,3.594,3.558,4.694,4.668.55.555.974.99,1.257,1.288a3.249,3.249,0,0,1,.416.471,3.292,3.292,0,0,1-.48-.409c-.3-.279-.746-.7-1.312-1.235-1.132-1.08-2.757-2.654-4.756-4.609-4-3.908-9.489-9.338-15.542-15.344" transform="translate(-136.229 -131.821)" fill="#f5f5f5"/>
        <path id="Trazado_873880" data-name="Trazado 873880" d="M197.263,176.1l-12.871-17.535-3.927-5.3-1.079-1.432-.285-.369a.949.949,0,0,0-.1-.122.959.959,0,0,0,.087.133l.27.38,1.056,1.448,3.923,5.3,13.034,17.421c5.093,6.8,9.695,12.956,13,17.435,1.652,2.239,2.981,4.058,3.889,5.321.454.632.8,1.125,1.036,1.462a3.2,3.2,0,0,1,.335.528,3.253,3.253,0,0,1-.409-.476c-.256-.321-.626-.8-1.1-1.418-.945-1.238-2.3-3.039-3.961-5.271-3.325-4.465-7.879-10.659-12.9-17.507" transform="translate(-146.206 -123.617)" fill="#f5f5f5"/>
        <path id="Trazado_873881" data-name="Trazado 873881" d="M206.854,170.426l-9.891-19.276-3.027-5.827-.835-1.578-.222-.408a.933.933,0,0,0-.082-.136.9.9,0,0,0,.064.145l.206.416.81,1.591,3.023,5.829,10.072,19.187c3.937,7.486,7.491,14.27,10.034,19.2,1.272,2.463,2.291,4.461,2.985,5.847.347.693.613,1.233.788,1.6a3.166,3.166,0,0,1,.246.572,3.174,3.174,0,0,1-.328-.533c-.2-.356-.49-.884-.857-1.568-.735-1.366-1.782-3.351-3.064-5.809-2.566-4.915-6.067-11.725-9.921-19.251" transform="translate(-157.476 -116.967)" fill="#f5f5f5"/>
        <path id="Trazado_873882" data-name="Trazado 873882" d="M217.367,166.236l-6.647-20.548-2.046-6.217-.569-1.686-.154-.437a.888.888,0,0,0-.059-.147.938.938,0,0,0,.04.153l.136.442.542,1.695,2.041,6.219,6.841,20.488c2.676,7.994,5.088,15.237,6.8,20.491.857,2.627,1.541,4.756,2,6.231.23.737.405,1.312.519,1.7a3.117,3.117,0,0,1,.15.6,3.135,3.135,0,0,1-.237-.576c-.141-.382-.341-.948-.593-1.679-.5-1.461-1.217-3.581-2.086-6.2-1.738-5.246-4.093-12.507-6.681-20.529" transform="translate(-169.806 -112.066)" fill="#f5f5f5"/>
        <path id="Trazado_873883" data-name="Trazado 873883" d="M228.425,163.706,225.187,142.4l-1.014-6.453-.289-1.752-.081-.455a.931.931,0,0,0-.034-.154.95.95,0,0,0,.014.157l.062.458.261,1.757,1.009,6.453,3.439,21.279c1.349,8.3,2.558,15.826,3.4,21.276.421,2.725.752,4.932.968,6.459.108.764.188,1.357.237,1.76a3.109,3.109,0,0,1,.051.618,3.148,3.148,0,0,1-.141-.605c-.077-.4-.183-.989-.313-1.749-.261-1.52-.622-3.723-1.055-6.446-.867-5.446-2.018-12.977-3.275-21.294" transform="translate(-182.773 -109.111)" fill="#f5f5f5"/>
        <path id="Trazado_873884" data-name="Trazado 873884" d="M237.788,162.906c.078-8.411.148-16.022.2-21.539.012-2.752.022-4.98.028-6.527,0-.766,0-1.363-.005-1.775,0-.2-.005-.352-.007-.462a.079.079,0,1,0-.019,0c0,.11-.006.263-.011.461-.005.412-.012,1.008-.022,1.775-.008,1.547-.019,3.775-.032,6.527,0,5.517,0,13.129,0,21.54s0,16.02-.039,21.531c-.019,2.756-.044,4.986-.074,6.527-.015.771-.03,1.369-.046,1.775a3.176,3.176,0,0,1-.048.619,3.169,3.169,0,0,1-.042-.619c-.012-.406-.022-1-.03-1.775-.015-1.541-.02-3.772-.013-6.527.013-5.511.077-13.124.161-21.53" transform="translate(-194.091 -108.182)" fill="#f5f5f5"/>
        <path id="Trazado_873885" data-name="Trazado 873885" d="M205.8,163.787l3.643-21.247,1.071-6.444.278-1.754.067-.457a.923.923,0,0,0,.016-.157.943.943,0,0,0-.036.154l-.085.454-.306,1.75-1.076,6.443-3.442,21.279c-1.337,8.306-2.559,15.826-3.479,21.264-.459,2.719-.841,4.919-1.117,6.436-.138.759-.249,1.348-.33,1.746a3.146,3.146,0,0,1-.147.6,3.1,3.1,0,0,1,.057-.618c.053-.4.138-1,.254-1.758.231-1.525.583-3.729,1.03-6.45.894-5.442,2.175-12.953,3.6-21.244" transform="translate(-164.052 -109.229)" fill="#f5f5f5"/>
        <path id="Trazado_873886" data-name="Trazado 873886" d="M173.979,166.4l7.041-20.424,2.1-6.2.558-1.69.14-.441a.079.079,0,1,0-.019-.006l-.158.435-.586,1.681-2.107,6.2L174.1,166.442c-2.666,8-5.091,15.236-6.88,20.466-.894,2.615-1.628,4.728-2.146,6.185-.259.728-.465,1.293-.609,1.674a3.132,3.132,0,0,1-.243.574,3.107,3.107,0,0,1,.156-.6c.117-.39.3-.962.535-1.7.475-1.471,1.179-3.593,2.062-6.212,1.764-5.238,4.247-12.458,7-20.427" transform="translate(-134.137 -112.306)" fill="#f5f5f5"/>
        <path id="Trazado_873887" data-name="Trazado 873887" d="M143.8,170.668l10.258-19.094,3.079-5.8.825-1.583.21-.414a.958.958,0,0,0,.065-.144.946.946,0,0,0-.083.135l-.226.406-.85,1.571-3.084,5.8-10.079,19.184c-3.928,7.49-7.5,14.267-10.109,19.159-1.306,2.446-2.373,4.421-3.12,5.78-.374.68-.668,1.206-.872,1.56a3.221,3.221,0,0,1-.332.53,3.172,3.172,0,0,1,.252-.57c.179-.367.45-.9.8-1.594.708-1.38,1.747-3.368,3.043-5.819,2.59-4.9,6.211-11.654,10.22-19.1" transform="translate(-105.757 -117.319)" fill="#f5f5f5"/>
        <path id="Trazado_873888" data-name="Trazado 873888" d="M116.106,176.407l13.2-17.3,3.975-5.262,1.07-1.438.274-.377a.957.957,0,0,0,.088-.132,1,1,0,0,0-.1.121l-.289.367-1.092,1.422-3.979,5.259-13.041,17.417c-5.084,6.8-9.7,12.953-13.066,17.387-1.683,2.217-3.054,4.006-4.012,5.235-.479.615-.854,1.089-1.112,1.408a3.218,3.218,0,0,1-.414.473,3.216,3.216,0,0,1,.341-.525c.236-.335.59-.825,1.05-1.453.921-1.255,2.267-3.061,3.941-5.285,3.347-4.449,8.009-10.567,13.167-17.315" transform="translate(-79.725 -124.069)" fill="#f5f5f5"/>
        <path id="Trazado_873889" data-name="Trazado 873889" d="M91.515,183.45l15.811-15.094,4.768-4.6,1.287-1.259.331-.331a.933.933,0,0,0,.108-.118,1.01,1.01,0,0,0-.122.1l-.344.319-1.307,1.24-4.771,4.594L91.607,183.54c-6.111,5.95-11.653,11.329-15.69,15.2-2.018,1.936-3.658,3.5-4.8,4.565-.571.535-1.017.947-1.324,1.223a3.291,3.291,0,0,1-.484.4,3.246,3.246,0,0,1,.42-.467c.286-.3.714-.726,1.27-1.276,1.11-1.1,2.729-2.681,4.739-4.625,4.018-3.889,9.6-9.228,15.778-15.114" transform="translate(-56.611 -132.364)" fill="#f5f5f5"/>
        <path id="Trazado_873890" data-name="Trazado 873890" d="M70.524,191.684l18.035-12.52L94,175.343l1.473-1.049.38-.277a.93.93,0,0,0,.125-.1,1.057,1.057,0,0,0-.137.084l-.391.263-1.489,1.027-5.449,3.816L70.6,191.787c-6.989,4.954-13.325,9.43-17.932,12.644-2.3,1.607-4.173,2.9-5.473,3.783-.65.442-1.157.782-1.5,1.008a3.34,3.34,0,0,1-.543.326,3.3,3.3,0,0,1,.49-.4c.33-.249.822-.609,1.459-1.069,1.273-.919,3.125-2.236,5.421-3.853,4.592-3.234,10.962-7.664,18-12.545" transform="translate(-36.878 -142.056)" fill="#f5f5f5"/>
        <path id="Trazado_873891" data-name="Trazado 873891" d="M53.6,201l19.827-9.625,5.993-2.946,1.623-.813.42-.216a.95.95,0,0,0,.14-.08,1.009,1.009,0,0,0-.149.062l-.428.2-1.636.788-6,2.941-19.736,9.8c-7.7,3.831-14.678,7.29-19.745,9.764-2.533,1.238-4.588,2.23-6.014,2.905-.713.338-1.268.6-1.647.767a3.38,3.38,0,0,1-.589.239,3.306,3.306,0,0,1,.548-.319c.366-.2.91-.477,1.613-.834,1.405-.715,3.446-1.734,5.974-2.982,5.056-2.5,12.06-5.9,19.8-9.655" transform="translate(-20.96 -153.004)" fill="#f5f5f5"/>
        <path id="Trazado_873892" data-name="Trazado 873892" d="M41.2,211.216l21.138-6.473,6.4-1.993,1.735-.555.449-.149a.972.972,0,0,0,.151-.057,1,1,0,0,0-.157.039l-.455.132-1.743.528-6.4,1.988-21.076,6.662c-8.224,2.606-15.675,4.955-21.079,6.624-2.7.835-4.892,1.5-6.41,1.949-.759.224-1.349.395-1.751.505a3.345,3.345,0,0,1-.62.146,3.352,3.352,0,0,1,.592-.231c.393-.137.976-.332,1.727-.577,1.5-.491,3.684-1.185,6.383-2.031,5.4-1.692,12.866-3.986,21.118-6.506" transform="translate(-9.292 -164.984)" fill="#f5f5f5"/>
        <path id="Trazado_873893" data-name="Trazado 873893" d="M33.716,221.962,55.639,218.8l6.638-.99,1.8-.282.468-.079a.081.081,0,1,0,0-.019l-.471.061-1.807.255-6.639.985-21.892,3.355c-8.543,1.316-16.282,2.5-21.889,3.317-2.8.411-5.074.734-6.645.945-.786.106-1.4.183-1.811.231a3.384,3.384,0,0,1-.636.05,3.385,3.385,0,0,1,.623-.137c.411-.075,1.017-.178,1.8-.306,1.564-.255,3.83-.607,6.632-1.03,5.6-.846,13.351-1.969,21.908-3.2" transform="translate(-2.249 -177.586)" fill="#f5f5f5"/>
        <path id="Trazado_873894" data-name="Trazado 873894" d="M31.333,231.213l22.162.18,6.716.023,1.826-.006.475-.007a1.018,1.018,0,0,0,.162-.009,1.073,1.073,0,0,0-.162-.01l-.475-.01-1.826-.02-6.716-.027-22.163.013c-8.65.011-16.483.01-22.154-.024-2.835-.016-5.13-.04-6.716-.068-.793-.014-1.409-.029-1.826-.044A3.454,3.454,0,0,1,0,231.158a3.462,3.462,0,0,1,.637-.041c.418-.012,1.033-.022,1.826-.03,1.586-.016,3.881-.022,6.716-.017,5.671.009,13.5.066,22.153.143" transform="translate(0 -188.736)" fill="#f5f5f5"/>
        <path id="Trazado_873895" data-name="Trazado 873895" d="M34,200.139l21.864,3.527,6.631,1.037,1.8.269.47.065a1.008,1.008,0,0,0,.161.015.981.981,0,0,0-.158-.035l-.468-.082-1.8-.3-6.63-1.042-21.9-3.332c-8.547-1.294-16.285-2.478-21.881-3.367-2.8-.444-5.061-.814-6.623-1.081-.781-.134-1.387-.241-1.8-.32a3.371,3.371,0,0,1-.621-.142,3.38,3.38,0,0,1,.636.055c.415.051,1.025.134,1.809.245,1.569.223,3.837.564,6.637,1,5.6.865,13.329,2.106,21.861,3.488" transform="translate(-2.494 -159.561)" fill="#f5f5f5"/>
        <path id="Trazado_873896" data-name="Trazado 873896" d="M41.76,169.211l21.019,6.83,6.38,2.039,1.739.542.454.136a1,1,0,0,0,.157.04.957.957,0,0,0-.151-.059l-.448-.153-1.73-.568L62.8,175.973l-21.083-6.641c-8.231-2.586-15.68-4.938-21.063-6.674-2.691-.867-4.866-1.579-6.365-2.082-.75-.252-1.331-.451-1.723-.591a3.313,3.313,0,0,1-.59-.236,3.342,3.342,0,0,1,.619.151c.4.114.99.289,1.747.519,1.513.461,3.7,1.144,6.393,2,5.39,1.711,12.821,4.12,21.023,6.792" transform="translate(-9.784 -130.482)" fill="#f5f5f5"/>
        <path id="Trazado_873897" data-name="Trazado 873897" d="M54.432,139.871l19.653,9.958,5.97,2.989,1.63.8.426.2a1.021,1.021,0,0,0,.148.063.978.978,0,0,0-.139-.081l-.418-.219-1.617-.826-5.969-2.993-19.744-9.784c-7.709-3.813-14.685-7.276-19.719-9.813-2.518-1.268-4.55-2.3-5.949-3.029-.7-.363-1.241-.648-1.605-.847a3.314,3.314,0,0,1-.545-.323,3.385,3.385,0,0,1,.587.245c.378.174.931.437,1.641.78,1.42.687,3.466,1.7,5.989,2.953,5.046,2.515,11.995,6.029,19.661,9.921" transform="translate(-21.689 -102.893)" fill="#f5f5f5"/>
        <path id="Trazado_873898" data-name="Trazado 873898" d="M71.6,112.946l17.809,12.821,5.416,3.86,1.48,1.039.388.266a.971.971,0,0,0,.136.085.975.975,0,0,0-.125-.1l-.377-.28-1.464-1.061-5.414-3.863L71.527,113.049c-7-4.937-13.334-9.418-17.9-12.688-2.283-1.635-4.124-2.966-5.389-3.9-.633-.465-1.121-.829-1.45-1.08a3.275,3.275,0,0,1-.486-.4,3.357,3.357,0,0,1,.54.33c.345.229.849.573,1.5,1.02,1.292.894,3.151,2.2,5.441,3.827,4.58,3.25,10.878,7.777,17.824,12.786" transform="translate(-37.82 -77.581)" fill="#f5f5f5"/>
        <path id="Trazado_873899" data-name="Trazado 873899" d="M92.813,89.034l15.541,15.357,4.733,4.631,1.3,1.25.341.321a.975.975,0,0,0,.121.1.969.969,0,0,0-.107-.118l-.328-.334-1.276-1.269-4.729-4.635L92.72,89.123C86.595,83.188,81.056,77.8,77.07,73.884c-1.993-1.96-3.6-3.553-4.7-4.663-.551-.555-.975-.988-1.259-1.286a3.23,3.23,0,0,1-.416-.47,3.311,3.311,0,0,1,.481.408c.3.278.747.694,1.314,1.233,1.133,1.078,2.761,2.651,4.762,4.6,4,3.9,9.5,9.326,15.561,15.325" transform="translate(-57.743 -55.105)" fill="#f5f5f5"/>
        <path id="Trazado_873900" data-name="Trazado 873900" d="M117.589,68.618l12.894,17.52,3.934,5.29,1.081,1.431.285.369a.969.969,0,0,0,.1.122.942.942,0,0,0-.086-.133l-.271-.379L134.47,91.39,130.54,86.1l-13.057-17.4c-5.1-6.789-9.711-12.944-13.021-17.419-1.655-2.237-2.986-4.054-3.9-5.317-.455-.631-.8-1.124-1.038-1.461a3.2,3.2,0,0,1-.336-.528,3.255,3.255,0,0,1,.41.476c.256.321.627.8,1.1,1.417.947,1.237,2.3,3.036,3.967,5.267,3.33,4.461,7.893,10.649,12.919,17.491" transform="translate(-81.019 -35.912)" fill="#f5f5f5"/>
        <path id="Trazado_873901" data-name="Trazado 873901" d="M145.432,52.15l9.916,19.264,3.035,5.823.837,1.577.223.408a.924.924,0,0,0,.082.136.948.948,0,0,0-.064-.145l-.206-.416-.812-1.59-3.03-5.825-10.1-19.175c-3.947-7.481-7.51-14.26-10.059-19.184-1.275-2.461-2.3-4.458-2.993-5.843-.348-.693-.614-1.232-.79-1.6a3.152,3.152,0,0,1-.247-.572,3.2,3.2,0,0,1,.328.532c.2.356.491.884.859,1.567.736,1.365,1.786,3.349,3.072,5.8,2.572,4.912,6.082,11.718,9.946,19.239" transform="translate(-107.185 -20.426)" fill="#f5f5f5"/>
        <path id="Trazado_873902" data-name="Trazado 873902" d="M175.717,40.078l6.674,20.54,2.054,6.214.572,1.686.154.437a.915.915,0,0,0,.059.147.939.939,0,0,0-.04-.153l-.136-.442-.544-1.694L182.461,60.6l-6.868-20.48c-2.687-7.991-5.109-15.231-6.829-20.483-.861-2.626-1.547-4.754-2.01-6.228-.231-.737-.407-1.311-.521-1.7a3.119,3.119,0,0,1-.151-.6,3.165,3.165,0,0,1,.238.576c.141.382.342.948.6,1.678.506,1.461,1.222,3.58,2.094,6.2,1.745,5.244,4.11,12.5,6.708,20.52" transform="translate(-135.654 -9.068)" fill="#f5f5f5"/>
        <path id="Trazado_873903" data-name="Trazado 873903" d="M207.576,32.788l3.266,21.3,1.023,6.451.291,1.752.081.455a.079.079,0,1,0,.02,0l-.063-.458-.263-1.756-1.018-6.452-3.466-21.275c-1.36-8.3-2.578-15.823-3.427-21.272-.425-2.725-.758-4.931-.976-6.458-.109-.763-.19-1.357-.239-1.76a3.134,3.134,0,0,1-.052-.618,3.129,3.129,0,0,1,.142.605c.077.4.184.988.316,1.748.263,1.52.627,3.722,1.064,6.445.874,5.446,2.034,12.975,3.3,21.291" transform="translate(-165.604 -2.204)" fill="#f5f5f5"/>
        <path id="Trazado_873904" data-name="Trazado 873904" d="M238.921,30.452c-.067,8.411-.128,16.022-.172,21.539-.008,2.752-.015,4.98-.02,6.527,0,.767.006,1.363.008,1.775,0,.2.005.352.007.462a.925.925,0,0,0,.009.157,1,1,0,0,0,.01-.157c0-.11.006-.263.01-.461,0-.412.011-1.008.019-1.775.006-1.547.014-3.775.024-6.527-.007-5.517-.017-13.129-.027-21.54s-.02-16.02.011-21.531c.015-2.756.038-4.986.066-6.527.014-.771.028-1.369.044-1.775A3.141,3.141,0,0,1,238.957,0,3.2,3.2,0,0,1,239,.619c.013.406.024,1,.032,1.775.017,1.541.025,3.772.021,6.527-.005,5.511-.06,13.124-.133,21.531" transform="translate(-194.994)" fill="#f5f5f5"/>
        <path id="Trazado_873905" data-name="Trazado 873905" d="M227.986,33.02l-3.615,21.251-1.063,6.445-.275,1.755-.066.457a.9.9,0,0,0-.016.157.938.938,0,0,0,.036-.154l.084-.454.3-1.75,1.068-6.445L227.857,33c1.326-8.308,2.539-15.829,3.451-21.268.455-2.72.835-4.919,1.108-6.438.137-.759.248-1.348.328-1.746a3.116,3.116,0,0,1,.146-.6,3.113,3.113,0,0,1-.056.618c-.052.4-.137,1-.251,1.758-.229,1.525-.578,3.73-1.022,6.452-.887,5.443-2.158,12.955-3.575,21.249" transform="translate(-182.106 -2.405)" fill="#f5f5f5"/>
        <path id="Trazado_873906" data-name="Trazado 873906" d="M216.931,40.547,209.918,60.98l-2.093,6.2-.556,1.691-.139.441a.079.079,0,1,0,.019.006l.157-.436.583-1.682,2.1-6.2,6.819-20.5c2.655-8,5.071-15.243,6.853-20.475.891-2.616,1.621-4.73,2.138-6.188.258-.729.463-1.293.607-1.674a3.135,3.135,0,0,1,.243-.574,3.111,3.111,0,0,1-.155.6c-.117.39-.3.962-.533,1.7-.473,1.471-1.174,3.595-2.054,6.215-1.757,5.24-4.23,12.464-6.974,20.436" transform="translate(-169.149 -9.471)" fill="#f5f5f5"/>
        <path id="Trazado_873907" data-name="Trazado 873907" d="M206.445,52.843,196.212,71.95l-3.072,5.8-.823,1.584-.209.414a.934.934,0,0,0-.065.144.945.945,0,0,0,.083-.135l.226-.406.848-1.572,3.076-5.8,10.054-19.2c3.918-7.5,7.477-14.277,10.084-19.171,1.3-2.448,2.367-4.424,3.113-5.784.373-.68.666-1.207.87-1.561a3.216,3.216,0,0,1,.332-.53,3.191,3.191,0,0,1-.251.57c-.178.367-.449.9-.8,1.6-.706,1.38-1.742,3.37-3.035,5.823-2.584,4.906-6.2,11.662-10.2,19.116" transform="translate(-156.86 -21.024)" fill="#f5f5f5"/>
        <path id="Trazado_873908" data-name="Trazado 873908" d="M196.9,69.515,183.717,86.832,179.749,92.1l-1.068,1.44-.273.378a.96.96,0,0,0-.088.132.971.971,0,0,0,.1-.121l.288-.367,1.091-1.423,3.972-5.264L196.792,69.44c5.075-6.808,9.682-12.965,13.043-17.4,1.68-2.219,3.049-4.009,4-5.24.478-.615.852-1.09,1.111-1.41a3.226,3.226,0,0,1,.413-.473,3.221,3.221,0,0,1-.34.525c-.235.335-.589.826-1.048,1.454-.919,1.256-2.263,3.064-3.934,5.29-3.341,4.453-7.995,10.577-13.144,17.332" transform="translate(-145.652 -36.686)" fill="#f5f5f5"/>
        <path id="Trazado_873909" data-name="Trazado 873909" d="M188.468,90.113l-15.791,15.114-4.762,4.6-1.285,1.261-.33.332a.977.977,0,0,0-.108.118.958.958,0,0,0,.122-.1l.343-.319,1.305-1.241,4.766-4.6,15.649-15.252c6.1-5.957,11.639-11.344,15.67-15.22,2.015-1.938,3.654-3.5,4.795-4.571.57-.535,1.016-.948,1.322-1.225a3.313,3.313,0,0,1,.484-.405,3.24,3.24,0,0,1-.42.468c-.286.3-.714.727-1.268,1.278-1.109,1.1-2.726,2.685-4.733,4.631-4.013,3.894-9.59,9.24-15.758,15.134" transform="translate(-135.744 -56.034)" fill="#f5f5f5"/>
        <path id="Trazado_873910" data-name="Trazado 873910" d="M181.268,114.179,163.25,126.722l-5.441,3.827-1.471,1.051-.38.278a.951.951,0,0,0-.125.1.982.982,0,0,0,.137-.084l.39-.263,1.488-1.029,5.444-3.823,17.9-12.7c6.982-4.962,13.312-9.446,17.915-12.666,2.3-1.61,4.169-2.9,5.468-3.79.649-.442,1.156-.783,1.5-1.009a3.32,3.32,0,0,1,.543-.327,3.313,3.313,0,0,1-.489.4c-.33.249-.821.61-1.457,1.071-1.272.921-3.122,2.24-5.416,3.859-4.588,3.24-10.952,7.678-17.988,12.567" transform="translate(-127.284 -78.644)" fill="#f5f5f5"/>
        <path id="Trazado_873911" data-name="Trazado 873911" d="M175.415,141.229l-19.814,9.65-5.99,2.953-1.622.815-.419.217a.973.973,0,0,0-.14.08.991.991,0,0,0,.149-.062l.428-.2,1.635-.79,5.992-2.949,19.723-9.826c7.694-3.841,14.668-7.308,19.732-9.789,2.532-1.241,4.585-2.236,6.01-2.913.712-.339,1.268-.6,1.647-.769a3.363,3.363,0,0,1,.589-.24,3.317,3.317,0,0,1-.547.32c-.366.2-.909.478-1.611.836-1.4.716-3.444,1.738-5.97,2.989-5.052,2.5-12.053,5.919-19.789,9.679" transform="translate(-120.421 -104.064)" fill="#f5f5f5"/>
        <path id="Trazado_873912" data-name="Trazado 873912" d="M171.086,170.655l-21.13,6.5-6.393,2-1.734.557-.449.15a.933.933,0,0,0-.151.058,1.047,1.047,0,0,0,.157-.039l.455-.133,1.743-.53,6.395-2,21.067-6.688c8.22-2.617,15.668-4.975,21.07-6.65,2.7-.838,4.89-1.507,6.407-1.958.758-.225,1.349-.4,1.75-.507a3.348,3.348,0,0,1,.62-.147,3.36,3.36,0,0,1-.592.232c-.393.137-.975.333-1.727.579-1.5.493-3.683,1.19-6.38,2.039-5.395,1.7-12.861,4-21.11,6.533" transform="translate(-115.356 -131.725)" fill="#f5f5f5"/>
        <path id="Trazado_873913" data-name="Trazado 873913" d="M168.461,201.614,146.542,204.8l-6.637,1-1.8.284-.468.079a1.043,1.043,0,0,0-.158.034.957.957,0,0,0,.161-.014l.471-.061,1.807-.257,6.638-.993,21.888-3.382c8.542-1.327,16.279-2.516,21.885-3.344,2.8-.415,5.073-.74,6.644-.953.786-.107,1.4-.185,1.811-.233a3.4,3.4,0,0,1,.636-.051,3.383,3.383,0,0,1-.622.138c-.41.076-1.017.18-1.8.308-1.564.257-3.83.612-6.631,1.038-5.6.853-13.348,1.986-21.9,3.223" transform="translate(-112.29 -160.83)" fill="#f5f5f5"/>
        <path id="Trazado_873914" data-name="Trazado 873914" d="M340.5,46.967l3.239-3.953-1.322-.51,1.034-2.881-2.953,3.408,1.519.443Z" transform="translate(-278.115 -32.364)" fill="#e0e0e0"/>
        <path id="Trazado_873915" data-name="Trazado 873915" d="M397.1,264.284l3.063,4.09.811-1.162,2.55,1.693-2.6-3.682-.793,1.369Z" transform="translate(-324.349 -215.868)" fill="#e0e0e0"/>
        <path id="Trazado_873916" data-name="Trazado 873916" d="M94.063,76.036l3.264,9.554,2.233-1.69,3.761,4.737-2.647-8.507L98.349,82.22Z" transform="translate(-76.831 -62.106)" fill="#e0e0e0"/>
        <path id="Trazado_873917" data-name="Trazado 873917" d="M217.084,317.11l2.2-7.867-2.263.1-.34-4.881-2.128,6.886,2.508-.329Z" transform="translate(-175.244 -248.689)" fill="#e0e0e0"/>
        <path id="Trazado_873918" data-name="Trazado 873918" d="M168.629,83.842l-.019,3.683.972-.315.729,2.083.106-3.248-1.051.442Z" transform="translate(-137.72 -68.482)" fill="#e0e0e0"/>
        <path id="Trazado_873919" data-name="Trazado 873919" d="M78.383,143.637l2.33,2.852.549-.862,1.888,1.142L81.164,144.2l-.53,1.01Z" transform="translate(-64.024 -117.323)" fill="#e0e0e0"/>
        <path id="Trazado_873920" data-name="Trazado 873920" d="M265.327,309.311l-.019,3.683.972-.315.729,2.083.106-3.249-1.051.442Z" transform="translate(-216.703 -252.646)" fill="#e0e0e0"/>
      </g>
    </g>
    <g id="Grupo_1100534" data-name="Grupo 1100534">
      <g id="Grupo_1100533" data-name="Grupo 1100533" clip-path="url(#clip-path)">
        <path id="Trazado_873921" data-name="Trazado 873921" d="M60.766,227.465c1.045,3.645-.789,7.369-4.1,8.317s-6.836-1.238-7.881-4.884.789-7.369,4.1-8.317,6.836,1.239,7.881,4.884" transform="translate(-39.611 -181.623)" fill="#455a64"/>
        <path id="Trazado_873922" data-name="Trazado 873922" d="M69,217.565c1.709,4.87.733,9.646-2.179,10.668s-6.658-2.1-8.367-6.967-.733-9.646,2.179-10.668,6.658,2.1,8.367,6.967" transform="translate(-47.057 -171.858)" fill="#f0c518"/>
        <path id="Trazado_873923" data-name="Trazado 873923" d="M138.176,189.584c1.871,5.333.634,10.622-2.764,11.815s-7.669-2.164-9.54-7.5-.634-10.622,2.764-11.815,7.669,2.164,9.54,7.5" transform="translate(-102.099 -148.532)" fill="#ff725e"/>
        <path id="Trazado_873924" data-name="Trazado 873924" d="M90.051,217.8c-2.3-4.743-1.581-12.314-1.581-12.314a6.429,6.429,0,0,1,0-1.964c.192-.575,2.944-1.358,2.944-1.358l-6.556-19.382-13.726,5.5,4.382,17.4s.69,6.752,1.169,9.818a66.351,66.351,0,0,0,1.773,9.008c.623,1.629,3.5,1.821,5.031,2.012s7.331-2.635,7.926-3.5.937-.479-1.362-5.223" transform="translate(-58.101 -149.293)" fill="#f0c518"/>
        <g id="Grupo_1100490" data-name="Grupo 1100490" transform="translate(22.9 33.314)" opacity="0.3">
          <g id="Grupo_1100489" data-name="Grupo 1100489">
            <g id="Grupo_1100488" data-name="Grupo 1100488" clip-path="url(#clip-path-4)">
              <path id="Trazado_873925" data-name="Trazado 873925" d="M138.176,189.584c1.871,5.333.634,10.622-2.764,11.815s-7.669-2.164-9.54-7.5-.634-10.622,2.764-11.815,7.669,2.164,9.54,7.5" transform="translate(-124.999 -181.846)"/>
            </g>
          </g>
        </g>
        <path id="Trazado_873926" data-name="Trazado 873926" d="M144.266,115.375s6.755-4,10.244-7.973c2.838-3.235,6.735-8.682,6.735-8.682l17.932,37.649s-9.331-3.57-17.932-3.651c-8.2-.077-11.289-.024-11.289-.024Z" transform="translate(-117.837 -80.635)" fill="#e0e0e0"/>
        <path id="Trazado_873927" data-name="Trazado 873927" d="M143.346,194.423c1.684,4.8.887,9.45-1.78,10.386s-6.195-2.2-7.879-7-.887-9.45,1.78-10.386,6.195,2.2,7.879,7" transform="translate(-108.474 -152.954)" fill="#e0e0e0"/>
        <g id="Grupo_1100493" data-name="Grupo 1100493" transform="translate(24.422 26.876)" opacity="0.3">
          <g id="Grupo_1100492" data-name="Grupo 1100492">
            <g id="Grupo_1100491" data-name="Grupo 1100491" clip-path="url(#clip-path-5)">
              <path id="Trazado_873928" data-name="Trazado 873928" d="M134.823,166.422c6.338-3.822,13.171-6.9,20.78-5.953a42.312,42.312,0,0,1-3.382-13.767c-4.812,6.582-11.011,12.6-18.912,14.611a23.746,23.746,0,0,0,.635,2.906c.319.911.878,2.2.878,2.2" transform="translate(-133.31 -146.702)" fill="#fff"/>
            </g>
          </g>
        </g>
        <g id="Grupo_1100496" data-name="Grupo 1100496" transform="translate(17.414 53.043)" opacity="0.2">
          <g id="Grupo_1100495" data-name="Grupo 1100495">
            <g id="Grupo_1100494" data-name="Grupo 1100494" clip-path="url(#clip-path-6)">
              <path id="Trazado_873929" data-name="Trazado 873929" d="M99.041,311.325l.281-.144.36-.181.289-.142.36-.172.291-.136.371-.169.281-.126c.134-.059.269-.117.4-.175l.251-.108q.316-.133.633-.26l.195-.077c.158-.063.315-.125.474-.186l.273-.1.389-.145.295-.106.368-.131.3-.1.365-.124.3-.1.37-.12.287-.092.394-.122.259-.079q.311-.094.62-.183l.007,0c-.157-.4-1.516-3.2-3.03-7.369-1.626-4.483-.6-10.815-.964-11.116s-8.406,3.324-8.406,3.324.69,6.752,1.169,9.818A66.325,66.325,0,0,0,98,311.706q.03.078.066.151c.116-.065.232-.131.348-.2l.256-.137c.125-.067.249-.134.375-.2" transform="translate(-95.054 -289.539)" fill="#f5f5f5"/>
            </g>
          </g>
        </g>
        <g id="Grupo_1100499" data-name="Grupo 1100499" transform="translate(20.422 71.541)" opacity="0.3">
          <g id="Grupo_1100498" data-name="Grupo 1100498">
            <g id="Grupo_1100497" data-name="Grupo 1100497" clip-path="url(#clip-path-7)">
              <path id="Trazado_873930" data-name="Trazado 873930" d="M120.864,390.512l-.008,0q-.309.089-.62.183l-.259.079-.394.122-.287.092-.37.12-.3.1-.365.124-.3.1-.368.131-.295.107-.388.145-.273.1c-.158.061-.316.123-.474.186l-.195.077q-.317.127-.633.26l-.251.108c-.135.058-.27.115-.4.175l-.281.126-.371.169-.291.136-.36.172-.289.142-.36.181-.281.144c-.125.066-.25.132-.375.2l-.256.137c-.117.064-.232.13-.348.2.738,1.49,3.48,1.676,4.965,1.861,1.533.192,7.331-2.635,7.926-3.5.319-.462.565-.568.371-1.3-1.268-.309-2.432-.592-3.853-.89l-.018.005" transform="translate(-111.473 -390.507)"/>
            </g>
          </g>
        </g>
        <path id="Trazado_873931" data-name="Trazado 873931" d="M148.352,298.586a1.649,1.649,0,0,0-.69.2c-.148.148-.343,7.093.345,8.226.041.067-.049.049.345.3s2.226,1.025,2.788.66,1.892-1.547,1.794-2.04-.6-.869-1.189-2.011a17.6,17.6,0,0,1-.732-4.3,16.4,16.4,0,0,0-2.66-1.033" transform="translate(-120.494 -243.884)" fill="#f5f5f5"/>
        <g id="Grupo_1100502" data-name="Grupo 1100502" transform="translate(27.976 54.712)" opacity="0.3">
          <g id="Grupo_1100501" data-name="Grupo 1100501">
            <g id="Grupo_1100500" data-name="Grupo 1100500" clip-path="url(#clip-path-8)">
              <path id="Trazado_873932" data-name="Trazado 873932" d="M157.171,306c0-.006,0-.013,0-.019-.1-.493-.6-.869-1.189-2.011a17.6,17.6,0,0,1-.732-4.3,22.2,22.2,0,0,0-2.543-1.023c.026.176.425,2.317.774,3.886a7.621,7.621,0,0,0,1.134,2.63c.036-.024.062-.037.074-.034a14.02,14.02,0,0,1,2.483.867" transform="translate(-152.706 -298.646)"/>
            </g>
          </g>
        </g>
        <g id="Grupo_1100505" data-name="Grupo 1100505" transform="translate(27.674 61.194)" opacity="0.5">
          <g id="Grupo_1100504" data-name="Grupo 1100504">
            <g id="Grupo_1100503" data-name="Grupo 1100503" clip-path="url(#clip-path-9)">
              <path id="Trazado_873933" data-name="Trazado 873933" d="M153.348,334.028c-.012,0-.038.01-.074.034-.359.238-1.825,1.687-2.212,2.072.045.031.105.071.187.121.394.246,2.226,1.025,2.788.66a5.891,5.891,0,0,0,1.753-1.792.471.471,0,0,0,.041-.228,14.023,14.023,0,0,0-2.483-.867" transform="translate(-151.062 -334.028)"/>
            </g>
          </g>
        </g>
        <path id="Trazado_873934" data-name="Trazado 873934" d="M127.281,391.66a.68.68,0,0,1-.131-.008c-.086-.008-.212-.027-.373-.058-.323-.059-.78-.19-1.339-.356-.28-.081-.588-.168-.923-.234a2.715,2.715,0,0,0-1.074-.035,18.394,18.394,0,0,0-2.374.793,36.624,36.624,0,0,0-4.207,1.755c-.523.259-.94.481-1.227.637l-.331.179a.7.7,0,0,1-.118.057.667.667,0,0,1,.109-.074c.073-.045.181-.113.322-.2.282-.166.695-.4,1.215-.665a33,33,0,0,1,4.206-1.785,17.556,17.556,0,0,1,2.391-.79,2.446,2.446,0,0,1,.572-.034,4.047,4.047,0,0,1,.532.078c.339.07.647.162.927.247.558.175,1.009.314,1.327.385.159.037.283.061.368.075a.684.684,0,0,1,.129.027" transform="translate(-94.083 -319.241)" fill="#263238"/>
        <path id="Trazado_873935" data-name="Trazado 873935" d="M153.462,334.167a2.408,2.408,0,0,1-.336.305c-.213.181-.506.432-.821.719s-.594.554-.795.748a2.4,2.4,0,0,1-.336.305,1.943,1.943,0,0,1,.288-.352c.189-.207.462-.484.779-.772s.619-.532.843-.7a1.929,1.929,0,0,1,.378-.253" transform="translate(-123.479 -272.947)" fill="#263238"/>
        <path id="Trazado_873936" data-name="Trazado 873936" d="M155.112,306.972a.924.924,0,0,1-.131-.185,4.379,4.379,0,0,1-.285-.55,10.07,10.07,0,0,1-.561-1.958c-.168-.777-.3-1.485-.367-2-.035-.258-.057-.468-.067-.614a1,1,0,0,1-.006-.227,1.057,1.057,0,0,1,.042.222l.1.608c.085.512.226,1.216.393,1.992a11.844,11.844,0,0,0,.531,1.952c.192.481.369.752.354.761" transform="translate(-125.535 -246.214)" fill="#263238"/>
        <path id="Trazado_873937" data-name="Trazado 873937" d="M165.71,334.833c-.013.025-.513-.215-1.16-.428s-1.19-.323-1.185-.351a1.227,1.227,0,0,1,.363.039,6.618,6.618,0,0,1,1.667.554,1.219,1.219,0,0,1,.314.186" transform="translate(-133.436 -272.852)" fill="#263238"/>
        <g id="Grupo_1100508" data-name="Grupo 1100508" transform="translate(11.404 40.485)" opacity="0.3">
          <g id="Grupo_1100507" data-name="Grupo 1100507">
            <g id="Grupo_1100506" data-name="Grupo 1100506" clip-path="url(#clip-path-10)">
              <path id="Trazado_873938" data-name="Trazado 873938" d="M72.906,220.988a6.543,6.543,0,0,0,.267,3.4s-6.938,2.206-10.265,3.675a4.6,4.6,0,0,1-.612-3Z" transform="translate(-62.251 -220.988)" fill="#fff"/>
            </g>
          </g>
        </g>
        <path id="Trazado_873939" data-name="Trazado 873939" d="M128.446,183.158a.373.373,0,0,1-.062.03l-.186.079a4.682,4.682,0,0,0-.677.373,5.321,5.321,0,0,0-1.8,2.158,9.67,9.67,0,0,0-.869,4.092,15.433,15.433,0,0,0,3.358,9.57,9.67,9.67,0,0,0,3.236,2.651,5.322,5.322,0,0,0,2.75.562,4.682,4.682,0,0,0,.761-.132l.194-.055a.394.394,0,0,1,.067-.016.359.359,0,0,1-.064.025l-.192.064a4.267,4.267,0,0,1-.763.15,5.289,5.289,0,0,1-2.782-.538,9.663,9.663,0,0,1-3.275-2.657,15.4,15.4,0,0,1-3.378-9.627,9.659,9.659,0,0,1,.9-4.12,5.287,5.287,0,0,1,1.836-2.159,4.278,4.278,0,0,1,.69-.359l.19-.07a.375.375,0,0,1,.066-.021" transform="translate(-101.91 -149.604)" fill="#263238"/>
        <path id="Trazado_873940" data-name="Trazado 873940" d="M146.595,291.192a.646.646,0,0,1-.179,0c-.115-.006-.28-.023-.485-.048a12.269,12.269,0,0,1-3.1-.826c-.19-.079-.341-.148-.444-.2a.648.648,0,0,1-.156-.088,6.393,6.393,0,0,1,.625.225c.384.142.919.324,1.522.485s1.158.269,1.562.337a6.365,6.365,0,0,1,.654.116" transform="translate(-116.176 -236.894)" fill="#263238"/>
        <path id="Trazado_873941" data-name="Trazado 873941" d="M102.89,289.487c.01.024-1.755.8-3.943,1.723s-3.97,1.659-3.981,1.635,1.755-.8,3.943-1.723,3.97-1.659,3.98-1.635" transform="translate(-77.569 -236.453)" fill="#263238"/>
        <path id="Trazado_873942" data-name="Trazado 873942" d="M161.245,98.719a.292.292,0,0,1-.032.053l-.1.151-.4.572c-.353.495-.869,1.207-1.517,2.079s-1.428,1.9-2.317,3.034c-.445.564-.916,1.153-1.417,1.754q-.373.452-.772.91c-.263.306-.551.6-.83.908a35.4,35.4,0,0,1-3.517,3.083c-1.136.882-2.195,1.628-3.095,2.237s-1.645,1.078-2.162,1.4c-.259.16-.462.28-.6.361l-.158.09a.031.031,0,1,1,0-.008l.153-.1.59-.376c.511-.328,1.249-.805,2.144-1.421s1.947-1.367,3.078-2.251a36.243,36.243,0,0,0,3.5-3.08c.278-.306.564-.6.827-.9s.522-.607.771-.907c.5-.6.973-1.187,1.419-1.749.891-1.126,1.676-2.154,2.331-3.02l1.541-2.06.418-.561.11-.145a.319.319,0,0,1,.04-.047" transform="translate(-117.837 -80.634)" fill="#263238"/>
        <path id="Trazado_873943" data-name="Trazado 873943" d="M175.321,284.048a.239.239,0,0,1,.056,0l.165,0,.635-.008,2.337-.01,7.712,0a42.359,42.359,0,0,1,7.671.769c.971.181,1.751.354,2.289.48.269.062.477.114.618.15l.16.042a.246.246,0,0,1,.054.018.254.254,0,0,1-.056-.008l-.162-.033-.621-.132c-.54-.114-1.321-.278-2.293-.45a44.271,44.271,0,0,0-7.659-.74l-7.711-.03-2.337-.02-.636-.01-.165-.005a.249.249,0,0,1-.056,0" transform="translate(-143.202 -231.989)" fill="#263238"/>
        <g id="Grupo_1100511" data-name="Grupo 1100511" transform="translate(41.405 18.462)" opacity="0.3">
          <g id="Grupo_1100510" data-name="Grupo 1100510">
            <g id="Grupo_1100509" data-name="Grupo 1100509" clip-path="url(#clip-path-11)">
              <path id="Trazado_873944" data-name="Trazado 873944" d="M251.632,112.769,227.7,100.775l-1.449,2.034a41.272,41.272,0,0,0,2.118,17.591,41.83,41.83,0,0,0,8.355,15.047l4.785,1.163Z" transform="translate(-226.013 -100.775)"/>
            </g>
          </g>
        </g>
        <path id="Trazado_873945" data-name="Trazado 873945" d="M256.486,73.833c4.287,13.072,2.555,25.378-3.87,27.485s-15.108-6.782-19.4-19.854-2.555-25.378,3.87-27.485,15.108,6.782,19.4,19.854" transform="translate(-188.572 -43.837)" fill="#f0c518"/>
        <path id="Trazado_873946" data-name="Trazado 873946" d="M272.057,94.725c3.531,10.766,2.909,20.637-1.39,22.047s-10.646-6.175-14.177-16.941-2.909-20.637,1.39-22.047,10.646,6.175,14.177,16.941" transform="translate(-207.632 -63.396)" fill="#e0e0e0"/>
        <g id="Grupo_1100514" data-name="Grupo 1100514" transform="translate(49.892 13.453)" opacity="0.3">
          <g id="Grupo_1100513" data-name="Grupo 1100513">
            <g id="Grupo_1100512" data-name="Grupo 1100512" clip-path="url(#clip-path-12)">
              <path id="Trazado_873947" data-name="Trazado 873947" d="M288.993,90.875c-3.633-11.076-10.42-18.8-15.16-17.241a4.153,4.153,0,0,0-1.5.887,3.318,3.318,0,0,1,.371-.147c4.3-1.41,10.646,6.175,14.177,16.941s2.909,20.637-1.39,22.047a3.719,3.719,0,0,1-2.06.045,4.876,4.876,0,0,0,3.556.339c4.74-1.554,5.637-11.794,2-22.87" transform="translate(-272.335 -73.435)"/>
            </g>
          </g>
        </g>
        <path id="Trazado_873948" data-name="Trazado 873948" d="M259.758,165.65l11.2-2.425,2.032,6.2-10.17,5.388s-2.876-6.356-3.061-9.159" transform="translate(-212.171 -133.322)" fill="#8722e2"/>
        <g id="Grupo_1100517" data-name="Grupo 1100517" transform="translate(47.587 31.651)" opacity="0.2">
          <g id="Grupo_1100516" data-name="Grupo 1100516">
            <g id="Grupo_1100515" data-name="Grupo 1100515" clip-path="url(#clip-path-13)">
              <path id="Trazado_873949" data-name="Trazado 873949" d="M262.883,172.77c-.175.072-2.247,3.72-.821,5.811a8.785,8.785,0,0,0,2.971,2.852l-2.074,1.121-2.166-5.74-1.035-3.367Z" transform="translate(-259.757 -172.77)"/>
            </g>
          </g>
        </g>
        <path id="Trazado_873950" data-name="Trazado 873950" d="M319.677,165.62c.561,1.711.315,3.328-.55,3.612s-2.021-.873-2.582-2.584-.315-3.328.55-3.612,2.021.873,2.582,2.584" transform="translate(-258.309 -133.132)" fill="#ff725e"/>
        <path id="Trazado_873951" data-name="Trazado 873951" d="M319.477,165.45a1.03,1.03,0,0,1-.063-.148c-.036-.1-.1-.242-.177-.425a6.068,6.068,0,0,0-.341-.642,4.245,4.245,0,0,0-.582-.76,1.953,1.953,0,0,0-.964-.591.843.843,0,0,0-.6.1,1.114,1.114,0,0,0-.425.5,3.13,3.13,0,0,0-.227,1.432,6.122,6.122,0,0,0,.975,2.974A3.137,3.137,0,0,0,318.1,168.9a1.116,1.116,0,0,0,.64.152.844.844,0,0,0,.541-.279,1.952,1.952,0,0,0,.426-1.047,4.242,4.242,0,0,0,.019-.958,6.046,6.046,0,0,0-.106-.719c-.043-.2-.079-.346-.109-.447a1.021,1.021,0,0,1-.037-.157,1,1,0,0,1,.055.151c.036.1.078.25.127.444a5.64,5.64,0,0,1,.122.722,4.2,4.2,0,0,1-.005.972,2.008,2.008,0,0,1-.435,1.092.924.924,0,0,1-.591.309,1.2,1.2,0,0,1-.689-.157,3.2,3.2,0,0,1-1.068-1.045,6.157,6.157,0,0,1-.991-3.022,3.2,3.2,0,0,1,.241-1.474,1.2,1.2,0,0,1,.462-.535.923.923,0,0,1,.659-.1,2.009,2.009,0,0,1,1,.622,4.194,4.194,0,0,1,.579.78,5.642,5.642,0,0,1,.329.654c.076.186.131.332.161.433a1.024,1.024,0,0,1,.045.155" transform="translate(-258.108 -132.962)" fill="#263238"/>
        <g id="Grupo_1100520" data-name="Grupo 1100520" transform="translate(58.762 31.192)" opacity="0.3">
          <g id="Grupo_1100519" data-name="Grupo 1100519">
            <g id="Grupo_1100518" data-name="Grupo 1100518" clip-path="url(#clip-path-14)">
              <path id="Trazado_873952" data-name="Trazado 873952" d="M322.72,171.766c.322.98.18,1.907-.315,2.07s-1.158-.5-1.48-1.481-.18-1.907.315-2.07,1.158.5,1.48,1.481" transform="translate(-320.753 -170.26)"/>
            </g>
          </g>
        </g>
        <path id="Trazado_873953" data-name="Trazado 873953" d="M257.705,78.536s-.037.019-.111.05-.188.071-.326.143a3.94,3.94,0,0,0-1.078.832,8.8,8.8,0,0,0-1.872,4.607,22.3,22.3,0,0,0-.251,3.474,34.269,34.269,0,0,0,.261,3.992,49.292,49.292,0,0,0,5.686,17.337,34.265,34.265,0,0,0,2.154,3.372,22.315,22.315,0,0,0,2.26,2.651,8.8,8.8,0,0,0,4.237,2.6,3.941,3.941,0,0,0,1.362.032c.155-.024.269-.062.348-.078s.119-.026.119-.026a4.569,4.569,0,0,1-.464.123,3.862,3.862,0,0,1-1.372-.014,6.2,6.2,0,0,1-2.017-.8,11.894,11.894,0,0,1-2.26-1.787,22.181,22.181,0,0,1-2.276-2.652,34.05,34.05,0,0,1-2.167-3.376,48.949,48.949,0,0,1-5.7-17.369,34.03,34.03,0,0,1-.253-4,22.216,22.216,0,0,1,.263-3.485,11.892,11.892,0,0,1,.762-2.779,6.2,6.2,0,0,1,1.149-1.843,3.864,3.864,0,0,1,1.1-.824,4.53,4.53,0,0,1,.446-.176" transform="translate(-207.457 -64.148)" fill="#263238"/>
        <g id="Grupo_1100523" data-name="Grupo 1100523" transform="translate(49.69 34.882)" opacity="0.2">
          <g id="Grupo_1100522" data-name="Grupo 1100522">
            <g id="Grupo_1100521" data-name="Grupo 1100521" clip-path="url(#clip-path-15)">
              <path id="Trazado_873954" data-name="Trazado 873954" d="M271.232,194.3l9.19-3.894s.713,1.213,1.623,1.258l-9.714,5.3Z" transform="translate(-271.232 -190.403)"/>
            </g>
          </g>
        </g>
        <g id="Grupo_1100526" data-name="Grupo 1100526" transform="translate(43.376 23.212)" opacity="0.3">
          <g id="Grupo_1100525" data-name="Grupo 1100525">
            <g id="Grupo_1100524" data-name="Grupo 1100524" clip-path="url(#clip-path-16)">
              <path id="Trazado_873955" data-name="Trazado 873955" d="M236.986,126.7s-.486,2.149,0,2.972h1.707V126.7Z" transform="translate(-236.77 -126.703)" fill="#fff"/>
            </g>
          </g>
        </g>
        <g id="Grupo_1100529" data-name="Grupo 1100529" transform="translate(43.503 9.876)" opacity="0.3">
          <g id="Grupo_1100528" data-name="Grupo 1100528">
            <g id="Grupo_1100527" data-name="Grupo 1100527" clip-path="url(#clip-path-17)">
              <path id="Trazado_873956" data-name="Trazado 873956" d="M245.21,53.911a7.656,7.656,0,0,0-3.795,1.883c-2.82,2.385-3.975,6.554-3.954,10.2a2.76,2.76,0,0,1,1.864,0,19.186,19.186,0,0,1,.968-5.412,6.112,6.112,0,0,1,7.986-4.071c3.239.926,5.736,3.362,7.978,5.937-3.414-4.963-7.417-8.137-11.047-8.537" transform="translate(-237.461 -53.911)" fill="#fff"/>
            </g>
          </g>
        </g>
        <path id="Trazado_873957" data-name="Trazado 873957" d="M322.726,280.266a.73.73,0,0,1-.051.127c-.039.081-.086.205-.169.355a7.129,7.129,0,0,1-.791,1.209,6.929,6.929,0,0,1-1.579,1.447,6.118,6.118,0,0,1-1.125.588,5.722,5.722,0,0,1-1.321.339,4.838,4.838,0,0,1-2.571-.451,9.3,9.3,0,0,1-1.826-1.12c-.484-.371-.855-.7-1.106-.927-.127-.114-.222-.206-.287-.267a.747.747,0,0,1-.1-.1.719.719,0,0,1,.108.084l.3.254c.259.221.635.538,1.123.9a9.546,9.546,0,0,0,1.821,1.094,4.8,4.8,0,0,0,2.524.436,5.7,5.7,0,0,0,1.3-.332,6.124,6.124,0,0,0,1.111-.574,7.032,7.032,0,0,0,1.575-1.416,7.71,7.71,0,0,0,.81-1.183c.088-.146.14-.267.184-.345a.755.755,0,0,1,.068-.119" transform="translate(-254.683 -228.921)" fill="#fff"/>
        <g id="Grupo_1100532" data-name="Grupo 1100532" transform="translate(46.479 14.602)" opacity="0.3">
          <g id="Grupo_1100531" data-name="Grupo 1100531">
            <g id="Grupo_1100530" data-name="Grupo 1100530" clip-path="url(#clip-path-18)">
              <path id="Trazado_873958" data-name="Trazado 873958" d="M261.017,109.629a62.408,62.408,0,0,1-5.5-19.013,24.511,24.511,0,0,1-.1-6.579,12.187,12.187,0,0,1,1.463-4.33c-3.837,2-4.272,11.5-.885,21.832,3.531,10.766,9.878,18.351,14.177,16.942a3.368,3.368,0,0,0,.435-.179,9.043,9.043,0,0,1-5.792-2.8,20.536,20.536,0,0,1-3.8-5.874" transform="translate(-253.709 -79.707)"/>
            </g>
          </g>
        </g>
      </g>
    </g>
    <path id="Trazado_873959" data-name="Trazado 873959" d="M374.859,136.3l11.257-2.027-1.731-2.466,6.169-2.6-9.835,1.188,1.783,2.7Z" transform="translate(-306.185 -105.535)" fill="#debefb"/>
    <path id="Trazado_873960" data-name="Trazado 873960" d="M369.189,77.367l7.146-5.715-2.777-1.2,2.483-4.518-5.813,4.886,2.409,1.138Z" transform="translate(-301.554 -53.857)" fill="#debefb"/>
    <path id="Trazado_873961" data-name="Trazado 873961" d="M389.6,201.114l7.174,5.7.188-2.143,4.769,1.958-6.176-4.974-.193,2.271Z" transform="translate(-318.224 -164.27)" fill="#debefb"/>
  </g>
</svg>
